<svg width="860" height="540" viewBox="0 0 860 540" fill="none" xmlns="http://www.w3.org/2000/svg">
  <rect width="860" height="540" rx="20" fill="#0C1513"/>
  <rect x="36" y="34" width="788" height="472" rx="16" fill="#101C19" stroke="#2B3E38"/>
  <rect x="70" y="74" width="720" height="54" rx="10" fill="#13221E" stroke="#324A43"/>
  <rect x="92" y="95" width="132" height="12" rx="6" fill="#2BC866"/>
  <rect x="244" y="95" width="106" height="12" rx="6" fill="#3E6359"/>
  <rect x="372" y="95" width="106" height="12" rx="6" fill="#3E6359"/>
  <rect x="500" y="95" width="106" height="12" rx="6" fill="#3E6359"/>
  <rect x="628" y="88" width="136" height="26" rx="8" fill="#2BC866"/>
  <rect x="70" y="152" width="228" height="154" rx="12" fill="#13221E" stroke="#324A43"/>
  <rect x="316" y="152" width="228" height="154" rx="12" fill="#13221E" stroke="#324A43"/>
  <rect x="562" y="152" width="228" height="154" rx="12" fill="#13221E" stroke="#324A43"/>
  <rect x="92" y="180" width="86" height="10" rx="5" fill="#2BC866"/>
  <rect x="338" y="180" width="86" height="10" rx="5" fill="#2BC866"/>
  <rect x="584" y="180" width="86" height="10" rx="5" fill="#2BC866"/>
  <rect x="92" y="206" width="182" height="8" rx="4" fill="#4A6E64"/>
  <rect x="338" y="206" width="182" height="8" rx="4" fill="#4A6E64"/>
  <rect x="584" y="206" width="182" height="8" rx="4" fill="#4A6E64"/>
  <rect x="92" y="228" width="182" height="8" rx="4" fill="#4A6E64"/>
  <rect x="338" y="228" width="182" height="8" rx="4" fill="#4A6E64"/>
  <rect x="584" y="228" width="182" height="8" rx="4" fill="#4A6E64"/>
  <rect x="70" y="326" width="720" height="148" rx="12" fill="#13221E" stroke="#324A43"/>
  <path d="M108 432V380H140V432" stroke="#2BC866" stroke-width="10" stroke-linecap="round"/>
  <path d="M176 432V354H208V432" stroke="#2BC866" stroke-width="10" stroke-linecap="round"/>
  <path d="M244 432V396H276V432" stroke="#2BC866" stroke-width="10" stroke-linecap="round"/>
  <path d="M332 408L390 368L450 388L520 342L588 372L650 338L744 372" stroke="#75E6A2" stroke-width="8" stroke-linecap="round" stroke-linejoin="round"/>
</svg>
